<?xml version="1.0" encoding="utf-8"?>
<!-- Generator: Adobe Illustrator 23.0.0, SVG Export Plug-In . SVG Version: 6.00 Build 0)  -->
<svg version="1.1" id="图层_1" xmlns="http://www.w3.org/2000/svg" xmlns:xlink="http://www.w3.org/1999/xlink" x="0px" y="0px"
	 viewBox="0 0 96 96" style="enable-background:new 0 0 96 96;" xml:space="preserve">
<g>
	<g>
		<path d="M14.66,48.39c2.43-2.84,4.88-5.65,7.36-8.44c1.26-1.38,2.43-2.83,3.77-4.13c1.35-1.29,2.64-2.62,3.96-3.93L45.54,16.1
			l1.71-1.71v2.41v39.14v19.57c-0.04,1.63,0.09,3.26-0.04,4.89l-0.3,4.89c-0.2,3.26-0.4,6.52-0.65,9.79
			c-0.25-3.26-0.45-6.52-0.65-9.79l-0.3-4.89c-0.14-1.63-0.01-3.26-0.04-4.89V55.95V16.81l1.71,0.71L31.16,33.31
			c-1.31,1.32-2.65,2.62-3.93,3.96c-1.3,1.34-2.75,2.51-4.13,3.77C20.31,43.52,17.5,45.97,14.66,48.39z"/>
	</g>
	<g>
		<polygon points="35.76,83.23 35.11,43.4 35.3,43.85 18.26,27.37 17.53,26.66 18.26,25.9 40.6,2.91 41.64,1.84 43.79,3.99 
			42.72,5.03 19.73,27.37 19.73,25.9 36.22,42.94 36.41,43.14 36.41,43.4 		"/>
	</g>
	<g>
		<polygon points="54.41,31.91 69.9,44.96 53.2,33.5 		"/>
	</g>
	<g>
		<polygon points="54.41,47.85 69.97,61.03 53.19,49.44 		"/>
	</g>
	<g>
		<polygon points="54.41,63.72 69.93,76.88 53.19,65.31 		"/>
	</g>
	<g>
		<path d="M69.44,95.09c-2.75-1.78-5.49-3.59-8.21-5.41l-4.08-2.74c-1.39-0.87-2.64-1.93-3.95-2.91l-0.4-0.3v-0.5V3.97V1.56
			l1.71,1.71l5.3,5.3l2.65,2.65c0.91,0.86,1.79,1.74,2.6,2.7c3.31,3.75,6.67,7.46,9.94,11.26c-3.8-3.27-7.51-6.62-11.26-9.94
			c-0.96-0.81-1.84-1.7-2.7-2.6l-2.65-2.65l-5.3-5.3l1.71-0.71v79.25l-0.4-0.8c1.3,0.99,2.65,1.92,3.87,3.02l3.74,3.19
			C64.5,90.77,66.98,92.92,69.44,95.09z"/>
	</g>
</g>
</svg>
